<?xml version="1.0" encoding="UTF-8" standalone="no"?>
<!-- Created with matplotlib (https://matplotlib.org/) -->

<svg
   xmlns:dc="http://purl.org/dc/elements/1.1/"
   xmlns:cc="http://creativecommons.org/ns#"
   xmlns:rdf="http://www.w3.org/1999/02/22-rdf-syntax-ns#"
   xmlns:svg="http://www.w3.org/2000/svg"
   xmlns="http://www.w3.org/2000/svg"
   xmlns:xlink="http://www.w3.org/1999/xlink"
   xmlns:sodipodi="http://sodipodi.sourceforge.net/DTD/sodipodi-0.dtd"
   xmlns:inkscape="http://www.inkscape.org/namespaces/inkscape"
   height="741.6pt"
   version="1.1"
   viewBox="0 0 684 741.6"
   width="684pt"
   id="svg2"
   inkscape:version="0.91 r13725"
   sodipodi:docname="PR-curve_presentation.svg"
   inkscape:export-filename="/home/steffen/phd/coding_challenge_ECB/codebuster/PR_curve_presentation/PR-curveMOD.png"
   inkscape:export-xdpi="180"
   inkscape:export-ydpi="180">
  <metadata
     id="metadata404">
    <rdf:RDF>
      <cc:Work
         rdf:about="">
        <dc:format>image/svg+xml</dc:format>
        <dc:type
           rdf:resource="http://purl.org/dc/dcmitype/StillImage" />
      </cc:Work>
    </rdf:RDF>
  </metadata>
  <sodipodi:namedview
     pagecolor="#ffffff"
     bordercolor="#666666"
     borderopacity="1"
     objecttolerance="10"
     gridtolerance="10"
     guidetolerance="10"
     inkscape:pageopacity="0"
     inkscape:pageshadow="2"
     inkscape:window-width="1535"
     inkscape:window-height="876"
     id="namedview402"
     showgrid="false"
     inkscape:zoom="1.0183388"
     inkscape:cx="477.29573"
     inkscape:cy="804.86882"
     inkscape:window-x="65"
     inkscape:window-y="24"
     inkscape:window-maximized="1"
     inkscape:current-layer="figure_1" />
  <defs
     id="defs4">
    <style
       type="text/css"
       id="style6">
*{stroke-linecap:butt;stroke-linejoin:round;}
  </style>
  </defs>
  <g
     inkscape:groupmode="layer"
     id="layer2"
     inkscape:label="Layer 1">
    <rect
       style="opacity:1;fill:#fffdff;fill-opacity:1;fill-rule:nonzero;stroke:#08932b;stroke-width:0.45999998;stroke-linecap:round;stroke-linejoin:miter;stroke-miterlimit:4;stroke-dasharray:none;stroke-dashoffset:0;stroke-opacity:1"
       id="rect4537"
       width="864.15253"
       height="952.13898"
       x="-81.524628"
       y="-124.25453" />
  </g>
  <g
     inkscape:groupmode="layer"
     id="layer3"
     inkscape:label="Layer 2">
    <g
       style=""
       id="figure_1">
      <g
         id="patch_1" />
      <g
         id="axes_1">
        <g
           id="patch_2">
          <path
             d="M 75.935 676.96  L 664.161015 676.96  L 664.161015 101.94  L 75.935 101.94  z "
             style="fill:#ffffff;"
             id="path14" />
        </g>
        <g
           id="matplotlib.axis_1">
          <g
             id="xtick_1">
            <g
               id="line2d_1">
              <defs
                 id="defs19">
                <path
                   d="M 0 0  L 0 3.5  "
                   id="me8132ebe43"
                   style="stroke:#000000;stroke-width:0.8;" />
              </defs>
              <g
                 id="g22">
                <use
                   style="stroke:#000000;stroke-width:0.8;"
                   x="75.935"
                   xlink:href="#me8132ebe43"
                   y="676.96"
                   id="use24" />
              </g>
            </g>
            <g
               id="text_1">
              <!-- 0.0 -->
              <defs
                 id="defs27">
                <path
                   d="M 31.78125 66.40625  Q 24.171875 66.40625 20.328125 58.90625  Q 16.5 51.421875 16.5 36.375  Q 16.5 21.390625 20.328125 13.890625  Q 24.171875 6.390625 31.78125 6.390625  Q 39.453125 6.390625 43.28125 13.890625  Q 47.125 21.390625 47.125 36.375  Q 47.125 51.421875 43.28125 58.90625  Q 39.453125 66.40625 31.78125 66.40625  z M 31.78125 74.21875  Q 44.046875 74.21875 50.515625 64.515625  Q 56.984375 54.828125 56.984375 36.375  Q 56.984375 17.96875 50.515625 8.265625  Q 44.046875 -1.421875 31.78125 -1.421875  Q 19.53125 -1.421875 13.0625 8.265625  Q 6.59375 17.96875 6.59375 36.375  Q 6.59375 54.828125 13.0625 64.515625  Q 19.53125 74.21875 31.78125 74.21875  z "
                   id="DejaVuSans-48" />
                <path
                   d="M 10.6875 12.40625  L 21 12.40625  L 21 0  L 10.6875 0  z "
                   id="DejaVuSans-46" />
              </defs>
              <g
                 transform="translate(61.622188 697.637187)scale(0.18 -0.18)"
                 id="g31">
                <use
                   xlink:href="#DejaVuSans-48"
                   id="use33" />
                <use
                   x="63.623047"
                   xlink:href="#DejaVuSans-46"
                   id="use35" />
                <use
                   x="95.410156"
                   xlink:href="#DejaVuSans-48"
                   id="use37" />
              </g>
            </g>
          </g>
          <g
             id="xtick_2">
            <g
               id="line2d_2">
              <g
                 id="g41">
                <use
                   style="stroke:#000000;stroke-width:0.8;"
                   x="192.415399"
                   xlink:href="#me8132ebe43"
                   y="676.96"
                   id="use43" />
              </g>
            </g>
            <g
               id="text_2">
              <!-- 0.2 -->
              <defs
                 id="defs46">
                <path
                   d="M 19.1875 8.296875  L 53.609375 8.296875  L 53.609375 0  L 7.328125 0  L 7.328125 8.296875  Q 12.9375 14.109375 22.625 23.890625  Q 32.328125 33.6875 34.8125 36.53125  Q 39.546875 41.84375 41.421875 45.53125  Q 43.3125 49.21875 43.3125 52.78125  Q 43.3125 58.59375 39.234375 62.25  Q 35.15625 65.921875 28.609375 65.921875  Q 23.96875 65.921875 18.8125 64.3125  Q 13.671875 62.703125 7.8125 59.421875  L 7.8125 69.390625  Q 13.765625 71.78125 18.9375 73  Q 24.125 74.21875 28.421875 74.21875  Q 39.75 74.21875 46.484375 68.546875  Q 53.21875 62.890625 53.21875 53.421875  Q 53.21875 48.921875 51.53125 44.890625  Q 49.859375 40.875 45.40625 35.40625  Q 44.1875 33.984375 37.640625 27.21875  Q 31.109375 20.453125 19.1875 8.296875  z "
                   id="DejaVuSans-50" />
              </defs>
              <g
                 transform="translate(178.102586 697.637187)scale(0.18 -0.18)"
                 id="g49">
                <use
                   xlink:href="#DejaVuSans-48"
                   id="use51" />
                <use
                   x="63.623047"
                   xlink:href="#DejaVuSans-46"
                   id="use53" />
                <use
                   x="95.410156"
                   xlink:href="#DejaVuSans-50"
                   id="use55" />
              </g>
            </g>
          </g>
          <g
             id="xtick_3">
            <g
               id="line2d_3">
              <g
                 id="g59">
                <use
                   style="stroke:#000000;stroke-width:0.8;"
                   x="308.895798"
                   xlink:href="#me8132ebe43"
                   y="676.96"
                   id="use61" />
              </g>
            </g>
            <g
               id="text_3">
              <!-- 0.4 -->
              <defs
                 id="defs64">
                <path
                   d="M 37.796875 64.3125  L 12.890625 25.390625  L 37.796875 25.390625  z M 35.203125 72.90625  L 47.609375 72.90625  L 47.609375 25.390625  L 58.015625 25.390625  L 58.015625 17.1875  L 47.609375 17.1875  L 47.609375 0  L 37.796875 0  L 37.796875 17.1875  L 4.890625 17.1875  L 4.890625 26.703125  z "
                   id="DejaVuSans-52" />
              </defs>
              <g
                 transform="translate(294.582985 697.637187)scale(0.18 -0.18)"
                 id="g67">
                <use
                   xlink:href="#DejaVuSans-48"
                   id="use69" />
                <use
                   x="63.623047"
                   xlink:href="#DejaVuSans-46"
                   id="use71" />
                <use
                   x="95.410156"
                   xlink:href="#DejaVuSans-52"
                   id="use73" />
              </g>
            </g>
          </g>
          <g
             id="xtick_4">
            <g
               id="line2d_4">
              <g
                 id="g77">
                <use
                   style="stroke:#000000;stroke-width:0.8;"
                   x="425.376197"
                   xlink:href="#me8132ebe43"
                   y="676.96"
                   id="use79" />
              </g>
            </g>
            <g
               id="text_4">
              <!-- 0.6 -->
              <defs
                 id="defs82">
                <path
                   d="M 33.015625 40.375  Q 26.375 40.375 22.484375 35.828125  Q 18.609375 31.296875 18.609375 23.390625  Q 18.609375 15.53125 22.484375 10.953125  Q 26.375 6.390625 33.015625 6.390625  Q 39.65625 6.390625 43.53125 10.953125  Q 47.40625 15.53125 47.40625 23.390625  Q 47.40625 31.296875 43.53125 35.828125  Q 39.65625 40.375 33.015625 40.375  z M 52.59375 71.296875  L 52.59375 62.3125  Q 48.875 64.0625 45.09375 64.984375  Q 41.3125 65.921875 37.59375 65.921875  Q 27.828125 65.921875 22.671875 59.328125  Q 17.53125 52.734375 16.796875 39.40625  Q 19.671875 43.65625 24.015625 45.921875  Q 28.375 48.1875 33.59375 48.1875  Q 44.578125 48.1875 50.953125 41.515625  Q 57.328125 34.859375 57.328125 23.390625  Q 57.328125 12.15625 50.6875 5.359375  Q 44.046875 -1.421875 33.015625 -1.421875  Q 20.359375 -1.421875 13.671875 8.265625  Q 6.984375 17.96875 6.984375 36.375  Q 6.984375 53.65625 15.1875 63.9375  Q 23.390625 74.21875 37.203125 74.21875  Q 40.921875 74.21875 44.703125 73.484375  Q 48.484375 72.75 52.59375 71.296875  z "
                   id="DejaVuSans-54" />
              </defs>
              <g
                 transform="translate(411.063384 697.637187)scale(0.18 -0.18)"
                 id="g85">
                <use
                   xlink:href="#DejaVuSans-48"
                   id="use87" />
                <use
                   x="63.623047"
                   xlink:href="#DejaVuSans-46"
                   id="use89" />
                <use
                   x="95.410156"
                   xlink:href="#DejaVuSans-54"
                   id="use91" />
              </g>
            </g>
          </g>
          <g
             id="xtick_5">
            <g
               id="line2d_5">
              <g
                 id="g95">
                <use
                   style="stroke:#000000;stroke-width:0.8;"
                   x="541.856596"
                   xlink:href="#me8132ebe43"
                   y="676.96"
                   id="use97" />
              </g>
            </g>
            <g
               id="text_5">
              <!-- 0.8 -->
              <defs
                 id="defs100">
                <path
                   d="M 31.78125 34.625  Q 24.75 34.625 20.71875 30.859375  Q 16.703125 27.09375 16.703125 20.515625  Q 16.703125 13.921875 20.71875 10.15625  Q 24.75 6.390625 31.78125 6.390625  Q 38.8125 6.390625 42.859375 10.171875  Q 46.921875 13.96875 46.921875 20.515625  Q 46.921875 27.09375 42.890625 30.859375  Q 38.875 34.625 31.78125 34.625  z M 21.921875 38.8125  Q 15.578125 40.375 12.03125 44.71875  Q 8.5 49.078125 8.5 55.328125  Q 8.5 64.0625 14.71875 69.140625  Q 20.953125 74.21875 31.78125 74.21875  Q 42.671875 74.21875 48.875 69.140625  Q 55.078125 64.0625 55.078125 55.328125  Q 55.078125 49.078125 51.53125 44.71875  Q 48 40.375 41.703125 38.8125  Q 48.828125 37.15625 52.796875 32.3125  Q 56.78125 27.484375 56.78125 20.515625  Q 56.78125 9.90625 50.3125 4.234375  Q 43.84375 -1.421875 31.78125 -1.421875  Q 19.734375 -1.421875 13.25 4.234375  Q 6.78125 9.90625 6.78125 20.515625  Q 6.78125 27.484375 10.78125 32.3125  Q 14.796875 37.15625 21.921875 38.8125  z M 18.3125 54.390625  Q 18.3125 48.734375 21.84375 45.5625  Q 25.390625 42.390625 31.78125 42.390625  Q 38.140625 42.390625 41.71875 45.5625  Q 45.3125 48.734375 45.3125 54.390625  Q 45.3125 60.0625 41.71875 63.234375  Q 38.140625 66.40625 31.78125 66.40625  Q 25.390625 66.40625 21.84375 63.234375  Q 18.3125 60.0625 18.3125 54.390625  z "
                   id="DejaVuSans-56" />
              </defs>
              <g
                 transform="translate(527.543783 697.637187)scale(0.18 -0.18)"
                 id="g103">
                <use
                   xlink:href="#DejaVuSans-48"
                   id="use105" />
                <use
                   x="63.623047"
                   xlink:href="#DejaVuSans-46"
                   id="use107" />
                <use
                   x="95.410156"
                   xlink:href="#DejaVuSans-56"
                   id="use109" />
              </g>
            </g>
          </g>
          <g
             id="xtick_6">
            <g
               id="line2d_6">
              <g
                 id="g113">
                <use
                   style="stroke:#000000;stroke-width:0.8;"
                   x="658.336995"
                   xlink:href="#me8132ebe43"
                   y="676.96"
                   id="use115" />
              </g>
            </g>
            <g
               id="text_6">
              <!-- 1.0 -->
              <defs
                 id="defs118">
                <path
                   d="M 12.40625 8.296875  L 28.515625 8.296875  L 28.515625 63.921875  L 10.984375 60.40625  L 10.984375 69.390625  L 28.421875 72.90625  L 38.28125 72.90625  L 38.28125 8.296875  L 54.390625 8.296875  L 54.390625 0  L 12.40625 0  z "
                   id="DejaVuSans-49" />
              </defs>
              <g
                 transform="translate(644.024182 697.637187)scale(0.18 -0.18)"
                 id="g121">
                <use
                   xlink:href="#DejaVuSans-49"
                   id="use123" />
                <use
                   x="63.623047"
                   xlink:href="#DejaVuSans-46"
                   id="use125" />
                <use
                   x="95.410156"
                   xlink:href="#DejaVuSans-48"
                   id="use127" />
              </g>
            </g>
          </g>
          <g
             id="text_7">
            <!-- Recall -->
            <defs
               id="defs130">
              <path
                 d="M 44.390625 34.1875  Q 47.5625 33.109375 50.5625 29.59375  Q 53.5625 26.078125 56.59375 19.921875  L 66.609375 0  L 56 0  L 46.6875 18.703125  Q 43.0625 26.03125 39.671875 28.421875  Q 36.28125 30.8125 30.421875 30.8125  L 19.671875 30.8125  L 19.671875 0  L 9.8125 0  L 9.8125 72.90625  L 32.078125 72.90625  Q 44.578125 72.90625 50.734375 67.671875  Q 56.890625 62.453125 56.890625 51.90625  Q 56.890625 45.015625 53.6875 40.46875  Q 50.484375 35.9375 44.390625 34.1875  z M 19.671875 64.796875  L 19.671875 38.921875  L 32.078125 38.921875  Q 39.203125 38.921875 42.84375 42.21875  Q 46.484375 45.515625 46.484375 51.90625  Q 46.484375 58.296875 42.84375 61.546875  Q 39.203125 64.796875 32.078125 64.796875  z "
                 id="DejaVuSans-82" />
              <path
                 d="M 56.203125 29.59375  L 56.203125 25.203125  L 14.890625 25.203125  Q 15.484375 15.921875 20.484375 11.0625  Q 25.484375 6.203125 34.421875 6.203125  Q 39.59375 6.203125 44.453125 7.46875  Q 49.3125 8.734375 54.109375 11.28125  L 54.109375 2.78125  Q 49.265625 0.734375 44.1875 -0.34375  Q 39.109375 -1.421875 33.890625 -1.421875  Q 20.796875 -1.421875 13.15625 6.1875  Q 5.515625 13.8125 5.515625 26.8125  Q 5.515625 40.234375 12.765625 48.109375  Q 20.015625 56 32.328125 56  Q 43.359375 56 49.78125 48.890625  Q 56.203125 41.796875 56.203125 29.59375  z M 47.21875 32.234375  Q 47.125 39.59375 43.09375 43.984375  Q 39.0625 48.390625 32.421875 48.390625  Q 24.90625 48.390625 20.390625 44.140625  Q 15.875 39.890625 15.1875 32.171875  z "
                 id="DejaVuSans-101" />
              <path
                 d="M 48.78125 52.59375  L 48.78125 44.1875  Q 44.96875 46.296875 41.140625 47.34375  Q 37.3125 48.390625 33.40625 48.390625  Q 24.65625 48.390625 19.8125 42.84375  Q 14.984375 37.3125 14.984375 27.296875  Q 14.984375 17.28125 19.8125 11.734375  Q 24.65625 6.203125 33.40625 6.203125  Q 37.3125 6.203125 41.140625 7.25  Q 44.96875 8.296875 48.78125 10.40625  L 48.78125 2.09375  Q 45.015625 0.34375 40.984375 -0.53125  Q 36.96875 -1.421875 32.421875 -1.421875  Q 20.0625 -1.421875 12.78125 6.34375  Q 5.515625 14.109375 5.515625 27.296875  Q 5.515625 40.671875 12.859375 48.328125  Q 20.21875 56 33.015625 56  Q 37.15625 56 41.109375 55.140625  Q 45.0625 54.296875 48.78125 52.59375  z "
                 id="DejaVuSans-99" />
              <path
                 d="M 34.28125 27.484375  Q 23.390625 27.484375 19.1875 25  Q 14.984375 22.515625 14.984375 16.5  Q 14.984375 11.71875 18.140625 8.90625  Q 21.296875 6.109375 26.703125 6.109375  Q 34.1875 6.109375 38.703125 11.40625  Q 43.21875 16.703125 43.21875 25.484375  L 43.21875 27.484375  z M 52.203125 31.203125  L 52.203125 0  L 43.21875 0  L 43.21875 8.296875  Q 40.140625 3.328125 35.546875 0.953125  Q 30.953125 -1.421875 24.3125 -1.421875  Q 15.921875 -1.421875 10.953125 3.296875  Q 6 8.015625 6 15.921875  Q 6 25.140625 12.171875 29.828125  Q 18.359375 34.515625 30.609375 34.515625  L 43.21875 34.515625  L 43.21875 35.40625  Q 43.21875 41.609375 39.140625 45  Q 35.0625 48.390625 27.6875 48.390625  Q 23 48.390625 18.546875 47.265625  Q 14.109375 46.140625 10.015625 43.890625  L 10.015625 52.203125  Q 14.9375 54.109375 19.578125 55.046875  Q 24.21875 56 28.609375 56  Q 40.484375 56 46.34375 49.84375  Q 52.203125 43.703125 52.203125 31.203125  z "
                 id="DejaVuSans-97" />
              <path
                 d="M 9.421875 75.984375  L 18.40625 75.984375  L 18.40625 0  L 9.421875 0  z "
                 id="DejaVuSans-108" />
            </defs>
            <g
               transform="translate(330.686445 725.136563)scale(0.26 -0.26)"
               id="g137">
              <use
                 xlink:href="#DejaVuSans-82"
                 id="use139" />
              <use
                 x="69.419922"
                 xlink:href="#DejaVuSans-101"
                 id="use141" />
              <use
                 x="130.943359"
                 xlink:href="#DejaVuSans-99"
                 id="use143" />
              <use
                 x="185.923828"
                 xlink:href="#DejaVuSans-97"
                 id="use145" />
              <use
                 x="247.203125"
                 xlink:href="#DejaVuSans-108"
                 id="use147" />
              <use
                 x="274.986328"
                 xlink:href="#DejaVuSans-108"
                 id="use149" />
            </g>
          </g>
        </g>
        <g
           id="matplotlib.axis_2">
          <g
             id="ytick_1">
            <g
               id="line2d_7">
              <defs
                 id="defs154">
                <path
                   d="M 0 0  L -3.5 0  "
                   id="m032c159d5b"
                   style="stroke:#000000;stroke-width:0.8;" />
              </defs>
              <g
                 id="g157">
                <use
                   style="stroke:#000000;stroke-width:0.8;"
                   x="75.935"
                   xlink:href="#m032c159d5b"
                   y="676.96"
                   id="use159" />
              </g>
            </g>
            <g
               id="text_8">
              <!-- 0.0 -->
              <g
                 transform="translate(40.309375 683.798594)scale(0.18 -0.18)"
                 id="g162">
                <use
                   xlink:href="#DejaVuSans-48"
                   id="use164" />
                <use
                   x="63.623047"
                   xlink:href="#DejaVuSans-46"
                   id="use166" />
                <use
                   x="95.410156"
                   xlink:href="#DejaVuSans-48"
                   id="use168" />
              </g>
            </g>
          </g>
          <g
             id="ytick_2">
            <g
               id="line2d_8">
              <g
                 id="g172">
                <use
                   style="stroke:#000000;stroke-width:0.8;"
                   x="75.935"
                   xlink:href="#m032c159d5b"
                   y="563.094653"
                   id="use174" />
              </g>
            </g>
            <g
               id="text_9">
              <!-- 0.2 -->
              <g
                 transform="translate(40.309375 569.933247)scale(0.18 -0.18)"
                 id="g177">
                <use
                   xlink:href="#DejaVuSans-48"
                   id="use179" />
                <use
                   x="63.623047"
                   xlink:href="#DejaVuSans-46"
                   id="use181" />
                <use
                   x="95.410156"
                   xlink:href="#DejaVuSans-50"
                   id="use183" />
              </g>
            </g>
          </g>
          <g
             id="ytick_3">
            <g
               id="line2d_9">
              <g
                 id="g187">
                <use
                   style="stroke:#000000;stroke-width:0.8;"
                   x="75.935"
                   xlink:href="#m032c159d5b"
                   y="449.229307"
                   id="use189" />
              </g>
            </g>
            <g
               id="text_10">
              <!-- 0.4 -->
              <g
                 transform="translate(40.309375 456.067901)scale(0.18 -0.18)"
                 id="g192">
                <use
                   xlink:href="#DejaVuSans-48"
                   id="use194" />
                <use
                   x="63.623047"
                   xlink:href="#DejaVuSans-46"
                   id="use196" />
                <use
                   x="95.410156"
                   xlink:href="#DejaVuSans-52"
                   id="use198" />
              </g>
            </g>
          </g>
          <g
             id="ytick_4">
            <g
               id="line2d_10">
              <g
                 id="g202">
                <use
                   style="stroke:#000000;stroke-width:0.8;"
                   x="75.935"
                   xlink:href="#m032c159d5b"
                   y="335.36396"
                   id="use204" />
              </g>
            </g>
            <g
               id="text_11">
              <!-- 0.6 -->
              <g
                 transform="translate(40.309375 342.202554)scale(0.18 -0.18)"
                 id="g207">
                <use
                   xlink:href="#DejaVuSans-48"
                   id="use209" />
                <use
                   x="63.623047"
                   xlink:href="#DejaVuSans-46"
                   id="use211" />
                <use
                   x="95.410156"
                   xlink:href="#DejaVuSans-54"
                   id="use213" />
              </g>
            </g>
          </g>
          <g
             id="ytick_5">
            <g
               id="line2d_11">
              <g
                 id="g217">
                <use
                   style="stroke:#000000;stroke-width:0.8;"
                   x="75.935"
                   xlink:href="#m032c159d5b"
                   y="221.498614"
                   id="use219" />
              </g>
            </g>
            <g
               id="text_12">
              <!-- 0.8 -->
              <g
                 transform="translate(40.309375 228.337208)scale(0.18 -0.18)"
                 id="g222">
                <use
                   xlink:href="#DejaVuSans-48"
                   id="use224" />
                <use
                   x="63.623047"
                   xlink:href="#DejaVuSans-46"
                   id="use226" />
                <use
                   x="95.410156"
                   xlink:href="#DejaVuSans-56"
                   id="use228" />
              </g>
            </g>
          </g>
          <g
             id="ytick_6">
            <g
               id="line2d_12">
              <g
                 id="g232">
                <use
                   style="stroke:#000000;stroke-width:0.8;"
                   x="75.935"
                   xlink:href="#m032c159d5b"
                   y="107.633267"
                   id="use234" />
              </g>
            </g>
            <g
               id="text_13">
              <!-- 1.0 -->
              <g
                 transform="translate(40.309375 114.471861)scale(0.18 -0.18)"
                 id="g237">
                <use
                   xlink:href="#DejaVuSans-49"
                   id="use239" />
                <use
                   x="63.623047"
                   xlink:href="#DejaVuSans-46"
                   id="use241" />
                <use
                   x="95.410156"
                   xlink:href="#DejaVuSans-48"
                   id="use243" />
              </g>
            </g>
          </g>
          <g
             id="text_14">
            <!-- Precision -->
            <defs
               id="defs246">
              <path
                 d="M 19.671875 64.796875  L 19.671875 37.40625  L 32.078125 37.40625  Q 38.96875 37.40625 42.71875 40.96875  Q 46.484375 44.53125 46.484375 51.125  Q 46.484375 57.671875 42.71875 61.234375  Q 38.96875 64.796875 32.078125 64.796875  z M 9.8125 72.90625  L 32.078125 72.90625  Q 44.34375 72.90625 50.609375 67.359375  Q 56.890625 61.8125 56.890625 51.125  Q 56.890625 40.328125 50.609375 34.8125  Q 44.34375 29.296875 32.078125 29.296875  L 19.671875 29.296875  L 19.671875 0  L 9.8125 0  z "
                 id="DejaVuSans-80" />
              <path
                 d="M 41.109375 46.296875  Q 39.59375 47.171875 37.8125 47.578125  Q 36.03125 48 33.890625 48  Q 26.265625 48 22.1875 43.046875  Q 18.109375 38.09375 18.109375 28.8125  L 18.109375 0  L 9.078125 0  L 9.078125 54.6875  L 18.109375 54.6875  L 18.109375 46.1875  Q 20.953125 51.171875 25.484375 53.578125  Q 30.03125 56 36.53125 56  Q 37.453125 56 38.578125 55.875  Q 39.703125 55.765625 41.0625 55.515625  z "
                 id="DejaVuSans-114" />
              <path
                 d="M 9.421875 54.6875  L 18.40625 54.6875  L 18.40625 0  L 9.421875 0  z M 9.421875 75.984375  L 18.40625 75.984375  L 18.40625 64.59375  L 9.421875 64.59375  z "
                 id="DejaVuSans-105" />
              <path
                 d="M 44.28125 53.078125  L 44.28125 44.578125  Q 40.484375 46.53125 36.375 47.5  Q 32.28125 48.484375 27.875 48.484375  Q 21.1875 48.484375 17.84375 46.4375  Q 14.5 44.390625 14.5 40.28125  Q 14.5 37.15625 16.890625 35.375  Q 19.28125 33.59375 26.515625 31.984375  L 29.59375 31.296875  Q 39.15625 29.25 43.1875 25.515625  Q 47.21875 21.78125 47.21875 15.09375  Q 47.21875 7.46875 41.1875 3.015625  Q 35.15625 -1.421875 24.609375 -1.421875  Q 20.21875 -1.421875 15.453125 -0.5625  Q 10.6875 0.296875 5.421875 2  L 5.421875 11.28125  Q 10.40625 8.6875 15.234375 7.390625  Q 20.0625 6.109375 24.8125 6.109375  Q 31.15625 6.109375 34.5625 8.28125  Q 37.984375 10.453125 37.984375 14.40625  Q 37.984375 18.0625 35.515625 20.015625  Q 33.0625 21.96875 24.703125 23.78125  L 21.578125 24.515625  Q 13.234375 26.265625 9.515625 29.90625  Q 5.8125 33.546875 5.8125 39.890625  Q 5.8125 47.609375 11.28125 51.796875  Q 16.75 56 26.8125 56  Q 31.78125 56 36.171875 55.265625  Q 40.578125 54.546875 44.28125 53.078125  z "
                 id="DejaVuSans-115" />
              <path
                 d="M 30.609375 48.390625  Q 23.390625 48.390625 19.1875 42.75  Q 14.984375 37.109375 14.984375 27.296875  Q 14.984375 17.484375 19.15625 11.84375  Q 23.34375 6.203125 30.609375 6.203125  Q 37.796875 6.203125 41.984375 11.859375  Q 46.1875 17.53125 46.1875 27.296875  Q 46.1875 37.015625 41.984375 42.703125  Q 37.796875 48.390625 30.609375 48.390625  z M 30.609375 56  Q 42.328125 56 49.015625 48.375  Q 55.71875 40.765625 55.71875 27.296875  Q 55.71875 13.875 49.015625 6.21875  Q 42.328125 -1.421875 30.609375 -1.421875  Q 18.84375 -1.421875 12.171875 6.21875  Q 5.515625 13.875 5.515625 27.296875  Q 5.515625 40.765625 12.171875 48.375  Q 18.84375 56 30.609375 56  z "
                 id="DejaVuSans-111" />
              <path
                 d="M 54.890625 33.015625  L 54.890625 0  L 45.90625 0  L 45.90625 32.71875  Q 45.90625 40.484375 42.875 44.328125  Q 39.84375 48.1875 33.796875 48.1875  Q 26.515625 48.1875 22.3125 43.546875  Q 18.109375 38.921875 18.109375 30.90625  L 18.109375 0  L 9.078125 0  L 9.078125 54.6875  L 18.109375 54.6875  L 18.109375 46.1875  Q 21.34375 51.125 25.703125 53.5625  Q 30.078125 56 35.796875 56  Q 45.21875 56 50.046875 50.171875  Q 54.890625 44.34375 54.890625 33.015625  z "
                 id="DejaVuSans-110" />
            </defs>
            <g
               transform="translate(30.902188 447.962187)rotate(-90)scale(0.26 -0.26)"
               id="g254">
              <use
                 xlink:href="#DejaVuSans-80"
                 id="use256" />
              <use
                 x="60.287109"
                 xlink:href="#DejaVuSans-114"
                 id="use258" />
              <use
                 x="101.369141"
                 xlink:href="#DejaVuSans-101"
                 id="use260" />
              <use
                 x="162.892578"
                 xlink:href="#DejaVuSans-99"
                 id="use262" />
              <use
                 x="217.873047"
                 xlink:href="#DejaVuSans-105"
                 id="use264" />
              <use
                 x="245.65625"
                 xlink:href="#DejaVuSans-115"
                 id="use266" />
              <use
                 x="297.755859"
                 xlink:href="#DejaVuSans-105"
                 id="use268" />
              <use
                 x="325.539062"
                 xlink:href="#DejaVuSans-111"
                 id="use270" />
              <use
                 x="386.720703"
                 xlink:href="#DejaVuSans-110"
                 id="use272" />
            </g>
          </g>
        </g>
        <g
           id="line2d_13">
          <path
             clip-path="url(#p6660a10237)"
             d="m 658.33699,505.25829 -15.32636,3.181 0,-1.35904 0,-1.38114 -15.32637,3.26284 0,-1.38842 0,-1.41155 0,-1.43528 0,-1.4596 0,-1.48456 0,-1.51015 0,-1.53641 0,-1.56337 0,-1.59104 0,-1.61945 0,-1.64863 0,-1.6786 0,-1.70941 0,-1.74106 0,-1.7736 0,-1.80707 0,-1.84149 0,-1.8769 -15.32637,3.6141 0,-1.89667 0,-1.93423 0,-1.97292 0,-2.01277 0,-2.05385 0,-2.09619 0,-2.13987 0,-2.18491 -15.32637,3.82526 0,-2.21427 0,-2.2624 -15.32637,3.94421 0,-2.29399 0,-2.34554 0,-2.39885 0,-2.45399 -15.32637,4.10902 -15.32636,4.20569 0,-2.47187 0,-2.53143 0,-2.59317 0,-2.6572 0,-2.72363 0,-2.79258 -15.32637,4.43487 -15.32637,4.55006 -15.32637,4.66981 0,-2.7967 -15.32637,4.82133 0,-2.84558 0,-2.92463 0,-3.007 0,-3.09292 -15.32637,5.06854 0,-3.15484 -15.32636,5.2484 0,-3.21872 0,-3.31775 0,-3.42143 0,-3.53006 0,-3.64392 -15.32637,5.56983 -15.32637,5.75549 0,-3.69902 0,-3.82657 0,-3.96083 0,-4.10229 0,-4.25147 0,-4.40893 -15.32637,6.16672 -15.32637,6.40389 0,-4.50825 0,-4.68857 -15.32636,6.73897 0,-4.84121 -15.32637,7.06611 0,-5.00333 0,-5.22571 0,-5.46323 -15.32637,7.52281 -15.32637,7.88105 -15.32637,8.26548 0,-5.5544 0,-5.83925 0,-6.14658 -15.32637,8.90838 0,-6.41133 0,-6.7777 -15.32636,9.56851 0,-7.10389 0,-7.5479 0,-8.03485 -15.32637,10.40705 0,-8.50718 -15.32637,11.21826 0,-9.03693 0,-9.73208 0,-10.51065 -15.32637,12.33541 0,-11.34528 0,-12.37667 0,-13.55539 0,-14.91094 0,-16.48051 -15.32637,13.31758 -15.32637,14.88436 0,-18.83802 -15.32636,16.60537 -15.32637,18.97755 -15.32637,21.89719 -15.32637,25.54671 0,-21.56541 -15.32637,31.05419 -15.32636,37.95511 0,-23.72195 -15.32637,50.83275 0,-27.1108 0,-37.95511 -15.326372,85.39901 0,-47.4439 0,-94.88779 -18.659358,390.76354 c 1.110997,-225.1423 38.97807,5536.04243 4.443987,-107.15216"
             style="fill:none;stroke:#1f77b4;stroke-width:5;stroke-linecap:square;stroke-linejoin:round"
             id="path275"
             inkscape:connector-curvature="0"
             transform="translate(0,-172.8305)"
             sodipodi:nodetypes="ccccccccccccccccccccccccccccccccccccccccccccccccccccccccccccccccccccccccccccccccccccccccccccccccccccccccccccccccccccccccccccccc" />
        </g>
        <g
           id="patch_3">
          <path
             d="M 75.935 676.96  L 75.935 101.94  "
             style="fill:none;stroke:#000000;stroke-linecap:square;stroke-linejoin:miter;stroke-width:0.8;"
             id="path281" />
        </g>
        <g
           id="patch_4">
          <path
             d="M 664.161015 676.96  L 664.161015 101.94  "
             style="fill:none;stroke:#000000;stroke-linecap:square;stroke-linejoin:miter;stroke-width:0.8;"
             id="path284" />
        </g>
        <g
           id="patch_5">
          <path
             d="M 75.935 676.96  L 664.161015 676.96  "
             style="fill:none;stroke:#000000;stroke-linecap:square;stroke-linejoin:miter;stroke-width:0.8;"
             id="path287" />
        </g>
        <g
           id="patch_6">
          <path
             d="M 75.935 101.94  L 664.161015 101.94  "
             style="fill:none;stroke:#000000;stroke-linecap:square;stroke-linejoin:miter;stroke-width:0.8;"
             id="path290" />
        </g>
      </g>
      <text
         xml:space="preserve"
         style="font-style:normal;font-variant:normal;font-weight:bold;font-stretch:normal;font-size:32px;line-height:100%;font-family:'Liberation Sans';-inkscape-font-specification:'Liberation Sans, Bold';text-align:center;letter-spacing:0px;word-spacing:0px;writing-mode:lr-tb;text-anchor:middle;fill:#000000;fill-opacity:1;stroke:none;stroke-width:1px;stroke-linecap:butt;stroke-linejoin:miter;stroke-opacity:1"
         x="370.01437"
         y="59.705082"
         id="text4780"
         sodipodi:linespacing="100%"><tspan
           sodipodi:role="line"
           id="tspan4782"
           style="font-style:normal;font-variant:normal;font-weight:bold;font-stretch:normal;font-size:32px;line-height:100%;font-family:'Liberation Sans';-inkscape-font-specification:'Liberation Sans, Bold';text-align:center;writing-mode:lr-tb;text-anchor:middle;stroke-linecap:butt;stroke-linejoin:round"
           x="370.01437"
           y="59.705082">Example PR-curve</tspan></text>
    </g>
  </g>
  <defs
     id="defs397">
    <clipPath
       id="p6660a10237">
      <rect
         height="575.02"
         width="588.226015"
         x="75.935"
         y="101.94"
         id="rect400" />
    </clipPath>
  </defs>
</svg>
